{
    "asset" : {
        "generator" : "Khronos glTF Blender I/O v1.4.40",
        "version" : "2.0"
    },
    "scene" : 0,
    "scenes" : [
        {
            "name" : "Scene",
            "nodes" : [
                4
            ]
        }
    ],
    "nodes" : [
        {
            "mesh" : 0,
            "name" : "WoodPiece01",
            "rotation" : [
                0,
                0,
                0.2917725443840027,
                0.956487774848938
            ],
            "scale" : [
                0.15521390736103058,
                0.15521390736103058,
                0.011625299230217934
            ],
            "translation" : [
                0.08458270132541656,
                -0.09106320887804031,
                0
            ]
        },
        {
            "mesh" : 1,
            "name" : "WoodPiece02",
            "rotation" : [
                -0.2917725443840027,
                0.956487774848938,
                0,
                -1.1996019111393252e-06
            ],
            "scale" : [
                0.15521390736103058,
                0.15521390736103058,
                0.011625300161540508
            ],
            "translation" : [
                0.09083782136440277,
                -0.08685547858476639,
                0
            ]
        },
        {
            "children" : [
                0,
                1
            ],
            "mesh" : 2,
            "name" : "Handle",
            "scale" : [
                1.1176103353500366,
                1.1176103353500366,
                14.92165470123291
            ],
            "translation" : [
                0.11821910738945007,
                0.059057947248220444,
                0
            ]
        },
        {
            "mesh" : 3,
            "name" : "Spout",
            "scale" : [
                -0.6707862615585327,
                -0.6707862615585327,
                -0.6707862615585327
            ],
            "translation" : [
                -0.14888663589954376,
                -0.012133873999118805,
                0.004192886874079704
            ]
        },
        {
            "children" : [
                2,
                3
            ],
            "mesh" : 4,
            "name" : "Kettle",
            "rotation" : [
                -0.08120144158601761,
                0.025990620255470276,
                0.30373120307922363,
                0.9489353895187378
            ],
            "scale" : [
                0.45253074169158936,
                0.45253074169158936,
                0.45253074169158936
            ],
            "translation" : [
                0,
                0.14919328689575195,
                0
            ]
        }
    ],
    "materials" : [
        {
            "doubleSided" : true,
            "name" : "Wood",
            "pbrMetallicRoughness" : {
                "baseColorFactor" : [
                    0.09850611537694931,
                    0.05600377172231674,
                    0.011625475250184536,
                    1
                ],
                "metallicFactor" : 0,
                "roughnessFactor" : 0.5
            }
        },
        {
            "doubleSided" : true,
            "name" : "StainlessSteel",
            "pbrMetallicRoughness" : {
                "roughnessFactor" : 0
            }
        }
    ],
    "meshes" : [
        {
            "name" : "Circle.024",
            "primitives" : [
                {
                    "attributes" : {
                        "POSITION" : 0,
                        "NORMAL" : 1,
                        "TEXCOORD_0" : 2
                    },
                    "indices" : 3,
                    "material" : 0
                }
            ]
        },
        {
            "name" : "Circle.026",
            "primitives" : [
                {
                    "attributes" : {
                        "POSITION" : 4,
                        "NORMAL" : 5,
                        "TEXCOORD_0" : 6
                    },
                    "indices" : 3,
                    "material" : 0
                }
            ]
        },
        {
            "name" : "BezierCurve",
            "primitives" : [
                {
                    "attributes" : {
                        "POSITION" : 7,
                        "NORMAL" : 8,
                        "TEXCOORD_0" : 9
                    },
                    "indices" : 10,
                    "material" : 1
                }
            ]
        },
        {
            "name" : "BezierCurve.001",
            "primitives" : [
                {
                    "attributes" : {
                        "POSITION" : 11,
                        "NORMAL" : 12,
                        "TEXCOORD_0" : 13
                    },
                    "indices" : 14,
                    "material" : 1
                }
            ]
        },
        {
            "name" : "Circle.023",
            "primitives" : [
                {
                    "attributes" : {
                        "POSITION" : 15,
                        "NORMAL" : 16,
                        "TEXCOORD_0" : 17
                    },
                    "indices" : 18,
                    "material" : 1
                },
                {
                    "attributes" : {
                        "POSITION" : 19,
                        "NORMAL" : 20,
                        "TEXCOORD_0" : 21
                    },
                    "indices" : 22,
                    "material" : 0
                }
            ]
        }
    ],
    "accessors" : [
        {
            "bufferView" : 0,
            "componentType" : 5126,
            "count" : 60,
            "max" : [
                0.11157335340976715,
                0.8396337032318115,
                0.0846603512763977
            ],
            "min" : [
                0.019508875906467438,
                0.014107733964920044,
                -0.08466040343046188
            ],
            "type" : "VEC3"
        },
        {
            "bufferView" : 1,
            "componentType" : 5126,
            "count" : 60,
            "type" : "VEC3"
        },
        {
            "bufferView" : 2,
            "componentType" : 5126,
            "count" : 60,
            "type" : "VEC2"
        },
        {
            "bufferView" : 3,
            "componentType" : 5123,
            "count" : 348,
            "type" : "SCALAR"
        },
        {
            "bufferView" : 4,
            "componentType" : 5126,
            "count" : 60,
            "max" : [
                0.12366598844528198,
                0.8396337032318115,
                0.0846603736281395
            ],
            "min" : [
                0.031202446669340134,
                0.014107733964920044,
                -0.08466038852930069
            ],
            "type" : "VEC3"
        },
        {
            "bufferView" : 5,
            "componentType" : 5126,
            "count" : 60,
            "type" : "VEC3"
        },
        {
            "bufferView" : 6,
            "componentType" : 5126,
            "count" : 60,
            "type" : "VEC2"
        },
        {
            "bufferView" : 7,
            "componentType" : 5126,
            "count" : 552,
            "max" : [
                0.08731313794851303,
                0.03128591924905777,
                0.0010000159963965416
            ],
            "min" : [
                -0.05010390281677246,
                -0.0878690704703331,
                -0.0009999843314290047
            ],
            "type" : "VEC3"
        },
        {
            "bufferView" : 8,
            "componentType" : 5126,
            "count" : 552,
            "type" : "VEC3"
        },
        {
            "bufferView" : 9,
            "componentType" : 5126,
            "count" : 552,
            "type" : "VEC2"
        },
        {
            "bufferView" : 10,
            "componentType" : 5123,
            "count" : 3006,
            "type" : "SCALAR"
        },
        {
            "bufferView" : 11,
            "componentType" : 5126,
            "count" : 1274,
            "max" : [
                0.10132750123739243,
                0.10774177312850952,
                0.008711712434887886
            ],
            "min" : [
                -0.10201887041330338,
                -0.11056695878505707,
                -0.008710406720638275
            ],
            "type" : "VEC3"
        },
        {
            "bufferView" : 12,
            "componentType" : 5126,
            "count" : 1274,
            "type" : "VEC3"
        },
        {
            "bufferView" : 13,
            "componentType" : 5126,
            "count" : 1274,
            "type" : "VEC2"
        },
        {
            "bufferView" : 14,
            "componentType" : 5123,
            "count" : 7200,
            "type" : "SCALAR"
        },
        {
            "bufferView" : 15,
            "componentType" : 5126,
            "count" : 27265,
            "max" : [
                0.10161338001489639,
                0.09415683150291443,
                0.10161340236663818
            ],
            "min" : [
                -0.1016133651137352,
                -0.13058161735534668,
                -0.101613350212574
            ],
            "type" : "VEC3"
        },
        {
            "bufferView" : 16,
            "componentType" : 5126,
            "count" : 27265,
            "type" : "VEC3"
        },
        {
            "bufferView" : 17,
            "componentType" : 5126,
            "count" : 27265,
            "type" : "VEC2"
        },
        {
            "bufferView" : 18,
            "componentType" : 5123,
            "count" : 162816,
            "type" : "SCALAR"
        },
        {
            "bufferView" : 19,
            "componentType" : 5126,
            "count" : 6785,
            "max" : [
                0.014245901256799698,
                0.1324547976255417,
                0.014245901256799698
            ],
            "min" : [
                -0.014245896600186825,
                0.09415680915117264,
                -0.014245896600186825
            ],
            "type" : "VEC3"
        },
        {
            "bufferView" : 20,
            "componentType" : 5126,
            "count" : 6785,
            "type" : "VEC3"
        },
        {
            "bufferView" : 21,
            "componentType" : 5126,
            "count" : 6785,
            "type" : "VEC2"
        },
        {
            "bufferView" : 22,
            "componentType" : 5123,
            "count" : 39936,
            "type" : "SCALAR"
        }
    ],
    "bufferViews" : [
        {
            "buffer" : 0,
            "byteLength" : 720,
            "byteOffset" : 0
        },
        {
            "buffer" : 0,
            "byteLength" : 720,
            "byteOffset" : 720
        },
        {
            "buffer" : 0,
            "byteLength" : 480,
            "byteOffset" : 1440
        },
        {
            "buffer" : 0,
            "byteLength" : 696,
            "byteOffset" : 1920
        },
        {
            "buffer" : 0,
            "byteLength" : 720,
            "byteOffset" : 2616
        },
        {
            "buffer" : 0,
            "byteLength" : 720,
            "byteOffset" : 3336
        },
        {
            "buffer" : 0,
            "byteLength" : 480,
            "byteOffset" : 4056
        },
        {
            "buffer" : 0,
            "byteLength" : 6624,
            "byteOffset" : 4536
        },
        {
            "buffer" : 0,
            "byteLength" : 6624,
            "byteOffset" : 11160
        },
        {
            "buffer" : 0,
            "byteLength" : 4416,
            "byteOffset" : 17784
        },
        {
            "buffer" : 0,
            "byteLength" : 6012,
            "byteOffset" : 22200
        },
        {
            "buffer" : 0,
            "byteLength" : 15288,
            "byteOffset" : 28212
        },
        {
            "buffer" : 0,
            "byteLength" : 15288,
            "byteOffset" : 43500
        },
        {
            "buffer" : 0,
            "byteLength" : 10192,
            "byteOffset" : 58788
        },
        {
            "buffer" : 0,
            "byteLength" : 14400,
            "byteOffset" : 68980
        },
        {
            "buffer" : 0,
            "byteLength" : 327180,
            "byteOffset" : 83380
        },
        {
            "buffer" : 0,
            "byteLength" : 327180,
            "byteOffset" : 410560
        },
        {
            "buffer" : 0,
            "byteLength" : 218120,
            "byteOffset" : 737740
        },
        {
            "buffer" : 0,
            "byteLength" : 325632,
            "byteOffset" : 955860
        },
        {
            "buffer" : 0,
            "byteLength" : 81420,
            "byteOffset" : 1281492
        },
        {
            "buffer" : 0,
            "byteLength" : 81420,
            "byteOffset" : 1362912
        },
        {
            "buffer" : 0,
            "byteLength" : 54280,
            "byteOffset" : 1444332
        },
        {
            "buffer" : 0,
            "byteLength" : 79872,
            "byteOffset" : 1498612
        }
    ],
    "buffers" : [
        {
            "byteLength" : 1578484,
            "uri" : "data:application/octet-stream;base64,"
        }
    ]
}
